<?xml version="1.0" encoding="utf-8"?>
<!-- Generator: Adobe Illustrator 19.1.0, SVG Export Plug-In . SVG Version: 6.00 Build 0)  -->
<svg version="1.1" id="Layer_1" xmlns="http://www.w3.org/2000/svg" xmlns:xlink="http://www.w3.org/1999/xlink" x="0px" y="0px"
	 viewBox="-36 510 625 117" style="enable-background:new -36 510 625 117;" xml:space="preserve">
<style type="text/css">
	.st0{fill:#2185C5;}
	.st1{fill:#7ECEFD;}
	.st2{fill:#6BAFD6;}
	.st3{fill:#196B9E;}
	.st4{fill:#3E454C;}
	.st5{fill:url(#SVGID_1_);}
	.st6{fill:url(#SVGID_2_);}
</style>
<g>
	<polygon class="st0" points="64,554.6 36.4,574.6 64,627 91.6,574.6 	"/>
	<polygon class="st1" points="2.3,510 36.4,574.6 -36,627 	"/>
	<polygon class="st2" points="2.3,510 64,554.6 36.4,574.6 	"/>
	<polygon class="st3" points="125.7,510 64,554.6 91.6,574.6 	"/>
	<polygon class="st4" points="125.7,510 91.6,574.6 164,627 	"/>
</g>
<g>
	
		<linearGradient id="SVGID_1_" gradientUnits="userSpaceOnUse" x1="53.307" y1="568.8339" x2="47.8755" y2="574.4584" gradientTransform="matrix(1 0 0 -1 0 1138)">
		<stop  offset="6.973529e-02" style="stop-color:#000000;stop-opacity:0"/>
		<stop  offset="1" style="stop-color:#000000;stop-opacity:0.33"/>
	</linearGradient>
	<polygon class="st5" points="64,554.6 36.4,574.6 40.2,581.8 65.9,556 	"/>
	
		<linearGradient id="SVGID_2_" gradientUnits="userSpaceOnUse" x1="112.7187" y1="593.0025" x2="105.4962" y2="596.0682" gradientTransform="matrix(1 0 0 -1 0 1138)">
		<stop  offset="6.973529e-02" style="stop-color:#000000;stop-opacity:0"/>
		<stop  offset="1" style="stop-color:#000000;stop-opacity:0.66"/>
	</linearGradient>
	<polygon class="st6" points="125.7,510 91.6,574.6 98.1,579.3 126.2,511.6 	"/>
</g>
<g>
	<path class="st4" d="M260,528.1v80.6c0,1.1-0.4,1.5-1.4,1.5h-2.4c-1,0-1.4-0.4-1.4-1.5v-54c0-6.1,0.3-12.8,0.9-19.7h-0.3
		c-2.9,6.1-5.6,11.3-8.9,16.8l-20.9,37.2c-0.5,1-1,1.1-1.9,1.1h-1.5c-1,0-1.5-0.1-2-1.1L199,551.3c-3-5.3-5.6-10.4-8.5-16.4h-0.3
		c0.5,6.9,0.8,13.3,0.8,19.7v54c0,1.1-0.4,1.5-1.5,1.5h-2.1c-1.1,0-1.5-0.4-1.5-1.5v-80.5c0-1.1,0.4-1.5,1.5-1.5h1.9
		c1.3,0,1.6,0.4,2.3,1.3l31.6,55.8l31.3-55.6c0.6-1,1-1.4,2.1-1.4h2.3C259.6,526.6,260,527,260,528.1z"/>
	<path class="st4" d="M280.9,526.6h2.5c1,0,1.4,0.4,1.4,1.5v80.6c0,1.1-0.4,1.5-1.4,1.5h-2.5c-1.1,0-1.5-0.4-1.5-1.5v-80.6
		C279.3,527,279.7,526.6,280.9,526.6z"/>
	<path class="st4" d="M363.4,550.2c0,13.5-8,21.7-20.7,22.7c4.5,1.9,7,4.9,9.7,9.7l13.2,26.2c0.6,0.9,0.4,1.5-0.9,1.5h-2.3
		c-1.9,0-2.5-0.3-2.9-1.3l-12.3-24.3c-3.9-7.8-8.4-11.2-18.3-11.2h-19.4v35.2c0,1.1-0.4,1.5-1.4,1.5h-2.5c-1.1,0-1.5-0.4-1.5-1.5
		v-80.6c0-1.1,0.4-1.5,1.5-1.5h33.8C354.3,526.6,363.4,535.3,363.4,550.2z M338.8,531.8h-29.3v36.7h29.3c11.8,0,18.8-6.5,18.8-18.3
		C357.6,538.4,350.9,531.8,338.8,531.8z"/>
	<path class="st4" d="M441.7,610.2h-2.1c-1.8,0-2.4-0.3-2.6-1.3l-10.5-26.1h-39.1L376.9,609c-0.4,1-1,1.3-2.8,1.3h-2
		c-1.1,0-1.4-0.6-1-1.4l32.6-81.5c0.5-1,1-1.4,2-1.4h2.4c1,0,1.6,0.4,2,1.4l32.6,81.5C443.2,609.7,443,610.2,441.7,610.2z
		 M407,531.5h-0.4c0,0.6-0.1,2.8-1,5L389,578.4h36l-16.7-41.9C407.4,534.2,407.1,532,407,531.5z"/>
	<path class="st4" d="M481.3,525c18.3,0,26.9,7,31,20.6c0.4,1.1,0,1.5-1,2l-2.1,0.8c-1.1,0.3-1.6,0.1-2-1
		c-3.5-11.7-10.5-17.2-25.8-17.2c-17.4,0-26.3,8.9-26.3,23.8V583c0,14.7,9.1,23.9,26.3,23.9c15.8,0,22.6-6.1,26.1-17.8
		c0.5-1,1-1.3,2-1l2.3,0.9c1,0.4,1.3,0.9,1,1.9c-4,13.4-12.5,21.1-31.2,21.1c-20.6,0-31.7-11-31.7-29.1v-28.8
		C449.8,536,460.5,525,481.3,525z"/>
	<path class="st4" d="M532.4,528.1v77.1h42.9c1,0,1.4,0.4,1.4,1.4v2.1c0,1.1-0.4,1.5-1.4,1.5h-46.8c-1.1,0-1.5-0.4-1.5-1.5v-80.6
		c0-1.1,0.4-1.5,1.5-1.5h2.5C532,526.6,532.4,527,532.4,528.1z"/>
</g>
</svg>
