<svg version="1.1"
	 xmlns="http://www.w3.org/2000/svg" xmlns:xlink="http://www.w3.org/1999/xlink" xmlns:a="http://ns.adobe.com/AdobeSVGViewerExtensions/3.0/"
	 x="0px" y="0px" width="424.6px" height="56.7px" viewBox="0 0 424.6 56.7" style="enable-background:new 0 0 424.6 56.7;"
	 xml:space="preserve">
<style type="text/css">
	.st0{fill:#4C565C;}
	.st1{fill:#5692CE;}
	.st2{fill:#FFFFFF;}
</style>
<defs>
</defs>
<g>
	<path class="st0" d="M172.1,56.3L172,14.4l-17.7,36h-6.2l-17.7-36v41.8h-8.9v-56h11.2l18.5,37.2l18.4-37.2h11.1v56H172.1z"/>
	<path class="st0" d="M195.6,56.3v-56h9.4v56H195.6z"/>
	<path class="st0" d="M245,39.3c-0.8,0.1-1.7,0.1-2.6,0.1h-13.3v16.9h-9.4v-56h22.7c14.3,0,22.6,7,22.6,19.1c0,9-4.2,15.3-11.6,18.2
		L266,56.3h-10.7L245,39.3z M242.4,30.9c8.6,0,13.6-3.7,13.6-11.3c0-7.4-5-10.9-13.6-10.9h-13.3v22.2H242.4z"/>
	<path class="st0" d="M285.5,43.6l-5.4,12.6h-9.8l24.7-56h9.7l24.5,56h-10.1l-5.4-12.6H285.5z M299.6,10.3L289,35.2h21.1L299.6,10.3
		z"/>
	<path class="st0" d="M381.2,8.7l-5.5,6.9c-4.1-4.4-9.9-7.1-15.6-7.1c-11.2,0-20,8.6-20,19.7c0,11,8.8,19.8,20,19.8
		c5.6,0,11.4-2.6,15.6-6.6l5.6,6.2c-5.7,5.6-13.8,9.2-21.7,9.2c-16.4,0-29.1-12.4-29.1-28.5C330.5,12.3,343.4,0,360,0
		C367.9,0,375.8,3.3,381.2,8.7z"/>
	<path class="st0" d="M424.6,47.7v8.6h-33.7v-56h9.4v47.4H424.6z"/>
</g>
<g>
	<polygon class="st0" points="20.4,55.7 0,55.7 20.4,1 40.8,1 	"/>
	<polygon class="st0" points="61.2,55.7 40.8,55.7 61.2,1 81.6,1 	"/>
	<g>
		<polygon class="st1" points="81.6,55.7 102.1,55.7 81.6,1 61.2,1 		"/>
		<path class="st2" d="M81.6,1l20.4,54.7H81.6L61.2,1L81.6,1 M82.3,0h-0.7H61.2h-1.4l0.5,1.3L80.7,56l0.2,0.6h0.7h20.4h1.4l-0.5-1.4
			L82.6,0.6L82.3,0L82.3,0z"/>
	</g>
	<g>
		<polygon class="st1" points="40.8,55.7 61.2,55.7 40.8,1 20.4,1 		"/>
		<path class="st2" d="M40.8,1l20.4,54.7H40.8L20.4,1H40.8 M41.5,0h-0.7H20.4H19l0.5,1.3L39.9,56l0.2,0.6h0.7h20.4h1.4l-0.5-1.4
			L41.8,0.6L41.5,0L41.5,0z"/>
	</g>
</g>
</svg>
